<svg xmlns="http://www.w3.org/2000/svg" viewBox="0 0 41 41" shape-rendering="crispEdges"><rect width="41" height="41" fill="#fff"/><path d="M4 4h7v1h-7zM13 4h1v1h-1zM16 4h6v1h-6zM23 4h3v1h-3zM27 4h1v1h-1zM30 4h7v1h-7zM4 5h1v1h-1zM10 5h1v1h-1zM12 5h6v1h-6zM20 5h1v1h-1zM24 5h4v1h-4zM30 5h1v1h-1zM36 5h1v1h-1zM4 6h1v1h-1zM6 6h3v1h-3zM10 6h1v1h-1zM12 6h2v1h-2zM18 6h1v1h-1zM20 6h1v1h-1zM24 6h1v1h-1zM26 6h3v1h-3zM30 6h1v1h-1zM32 6h3v1h-3zM36 6h1v1h-1zM4 7h1v1h-1zM6 7h3v1h-3zM10 7h1v1h-1zM13 7h3v1h-3zM19 7h2v1h-2zM24 7h4v1h-4zM30 7h1v1h-1zM32 7h3v1h-3zM36 7h1v1h-1zM4 8h1v1h-1zM6 8h3v1h-3zM10 8h1v1h-1zM13 8h1v1h-1zM16 8h1v1h-1zM18 8h1v1h-1zM21 8h2v1h-2zM25 8h2v1h-2zM30 8h1v1h-1zM32 8h3v1h-3zM36 8h1v1h-1zM4 9h1v1h-1zM10 9h1v1h-1zM14 9h2v1h-2zM19 9h2v1h-2zM22 9h2v1h-2zM30 9h1v1h-1zM36 9h1v1h-1zM4 10h7v1h-7zM12 10h1v1h-1zM14 10h1v1h-1zM16 10h1v1h-1zM18 10h1v1h-1zM20 10h1v1h-1zM22 10h1v1h-1zM24 10h1v1h-1zM26 10h1v1h-1zM28 10h1v1h-1zM30 10h7v1h-7zM13 11h1v1h-1zM16 11h1v1h-1zM21 11h1v1h-1zM24 11h1v1h-1zM26 11h2v1h-2zM5 12h3v1h-3zM9 12h2v1h-2zM18 12h2v1h-2zM21 12h1v1h-1zM25 12h1v1h-1zM34 12h2v1h-2zM7 13h2v1h-2zM12 13h1v1h-1zM14 13h1v1h-1zM19 13h1v1h-1zM22 13h4v1h-4zM27 13h2v1h-2zM30 13h2v1h-2zM33 13h2v1h-2zM36 13h1v1h-1zM6 14h6v1h-6zM13 14h1v1h-1zM20 14h2v1h-2zM25 14h4v1h-4zM30 14h4v1h-4zM35 14h2v1h-2zM5 15h2v1h-2zM9 15h1v1h-1zM11 15h3v1h-3zM15 15h1v1h-1zM17 15h4v1h-4zM22 15h1v1h-1zM24 15h1v1h-1zM26 15h2v1h-2zM31 15h1v1h-1zM33 15h1v1h-1zM36 15h1v1h-1zM4 16h3v1h-3zM9 16h2v1h-2zM13 16h1v1h-1zM20 16h1v1h-1zM22 16h2v1h-2zM25 16h2v1h-2zM29 16h1v1h-1zM31 16h3v1h-3zM35 16h2v1h-2zM5 17h1v1h-1zM7 17h1v1h-1zM9 17h1v1h-1zM12 17h1v1h-1zM15 17h3v1h-3zM20 17h1v1h-1zM25 17h4v1h-4zM31 17h1v1h-1zM34 17h2v1h-2zM10 18h3v1h-3zM18 18h1v1h-1zM23 18h2v1h-2zM26 18h1v1h-1zM28 18h1v1h-1zM30 18h1v1h-1zM32 18h2v1h-2zM6 19h4v1h-4zM12 19h1v1h-1zM17 19h2v1h-2zM20 19h7v1h-7zM28 19h3v1h-3zM34 19h1v1h-1zM4 20h2v1h-2zM7 20h1v1h-1zM10 20h2v1h-2zM13 20h1v1h-1zM15 20h1v1h-1zM17 20h5v1h-5zM24 20h3v1h-3zM28 20h3v1h-3zM32 20h3v1h-3zM7 21h1v1h-1zM9 21h1v1h-1zM11 21h1v1h-1zM13 21h2v1h-2zM16 21h1v1h-1zM18 21h3v1h-3zM22 21h1v1h-1zM24 21h1v1h-1zM26 21h5v1h-5zM32 21h2v1h-2zM35 21h2v1h-2zM6 22h3v1h-3zM10 22h2v1h-2zM17 22h2v1h-2zM21 22h1v1h-1zM24 22h2v1h-2zM28 22h1v1h-1zM30 22h3v1h-3zM34 22h2v1h-2zM7 23h2v1h-2zM11 23h2v1h-2zM16 23h2v1h-2zM20 23h1v1h-1zM22 23h3v1h-3zM27 23h1v1h-1zM29 23h2v1h-2zM32 23h1v1h-1zM35 23h1v1h-1zM7 24h1v1h-1zM9 24h2v1h-2zM13 24h1v1h-1zM15 24h2v1h-2zM18 24h1v1h-1zM22 24h2v1h-2zM28 24h1v1h-1zM31 24h1v1h-1zM33 24h3v1h-3zM4 25h4v1h-4zM11 25h1v1h-1zM18 25h3v1h-3zM22 25h1v1h-1zM24 25h2v1h-2zM27 25h2v1h-2zM30 25h1v1h-1zM33 25h1v1h-1zM36 25h1v1h-1zM8 26h3v1h-3zM13 26h3v1h-3zM20 26h1v1h-1zM22 26h1v1h-1zM25 26h1v1h-1zM27 26h2v1h-2zM30 26h2v1h-2zM34 26h3v1h-3zM5 27h1v1h-1zM7 27h1v1h-1zM11 27h1v1h-1zM13 27h3v1h-3zM19 27h2v1h-2zM22 27h1v1h-1zM27 27h2v1h-2zM31 27h3v1h-3zM35 27h2v1h-2zM4 28h1v1h-1zM6 28h1v1h-1zM8 28h3v1h-3zM13 28h2v1h-2zM16 28h2v1h-2zM20 28h1v1h-1zM22 28h1v1h-1zM24 28h1v1h-1zM26 28h7v1h-7zM35 28h2v1h-2zM12 29h5v1h-5zM18 29h1v1h-1zM21 29h3v1h-3zM26 29h1v1h-1zM28 29h1v1h-1zM32 29h2v1h-2zM4 30h7v1h-7zM14 30h3v1h-3zM18 30h1v1h-1zM21 30h1v1h-1zM23 30h6v1h-6zM30 30h1v1h-1zM32 30h1v1h-1zM4 31h1v1h-1zM10 31h1v1h-1zM12 31h1v1h-1zM18 31h1v1h-1zM20 31h2v1h-2zM23 31h6v1h-6zM32 31h3v1h-3zM36 31h1v1h-1zM4 32h1v1h-1zM6 32h3v1h-3zM10 32h1v1h-1zM13 32h1v1h-1zM16 32h3v1h-3zM20 32h1v1h-1zM23 32h3v1h-3zM27 32h6v1h-6zM34 32h2v1h-2zM4 33h1v1h-1zM6 33h3v1h-3zM10 33h1v1h-1zM12 33h8v1h-8zM21 33h1v1h-1zM23 33h2v1h-2zM31 33h1v1h-1zM33 33h1v1h-1zM35 33h2v1h-2zM4 34h1v1h-1zM6 34h3v1h-3zM10 34h1v1h-1zM12 34h1v1h-1zM14 34h2v1h-2zM20 34h2v1h-2zM24 34h1v1h-1zM28 34h4v1h-4zM34 34h1v1h-1zM4 35h1v1h-1zM10 35h1v1h-1zM12 35h1v1h-1zM14 35h1v1h-1zM20 35h1v1h-1zM22 35h1v1h-1zM24 35h1v1h-1zM27 35h3v1h-3zM31 35h2v1h-2zM36 35h1v1h-1zM4 36h7v1h-7zM14 36h5v1h-5zM20 36h3v1h-3zM25 36h1v1h-1zM29 36h1v1h-1zM32 36h1v1h-1zM34 36h1v1h-1z" fill="#000"/></svg>
